<svg width="39" height="38" viewBox="0 0 39 38" fill="none" xmlns="http://www.w3.org/2000/svg">
<path d="M1 19C1 8.78273 9.28273 0.5 19.5 0.5V0.5C29.7173 0.5 38 8.78273 38 19V19C38 29.2173 29.7173 37.5 19.5 37.5V37.5C9.28273 37.5 1 29.2173 1 19V19Z" stroke="#FF5987"/>
<path fill-rule="evenodd" clip-rule="evenodd" d="M12.8432 16.6323C12.8432 14.8733 13.5445 13.1864 14.7929 11.9426C16.0413 10.6988 17.7345 10 19.5 10C21.2655 10 22.9587 10.6988 24.2071 11.9426C25.4555 13.1864 26.1568 14.8733 26.1568 16.6323V20.1986L27.8895 23.6512C27.9693 23.8101 28.007 23.9867 27.9989 24.1641C27.9909 24.3416 27.9375 24.5141 27.8437 24.6653C27.75 24.8164 27.619 24.9412 27.4632 25.0277C27.3075 25.1142 27.1321 25.1596 26.9538 25.1595H23.1841C22.9726 25.9727 22.496 26.6928 21.8292 27.207C21.1624 27.7211 20.3431 28 19.5 28C18.6569 28 17.8376 27.7211 17.1708 27.207C16.504 26.6928 16.0274 25.9727 15.8159 25.1595H12.0462C11.8679 25.1596 11.6925 25.1142 11.5368 25.0277C11.381 24.9412 11.25 24.8164 11.1563 24.6653C11.0625 24.5141 11.0091 24.3416 11.0011 24.1641C10.993 23.9867 11.0307 23.8101 11.1105 23.6512L12.8432 20.1986V16.6323ZM17.8529 25.1595C18.0198 25.4476 18.2599 25.6868 18.5491 25.8531C18.8382 26.0194 19.1662 26.1069 19.5 26.1069C19.8338 26.1069 20.1618 26.0194 20.4509 25.8531C20.7401 25.6868 20.9802 25.4476 21.1471 25.1595H17.8529ZM19.5 11.8949C18.2389 11.8949 17.0295 12.3941 16.1378 13.2825C15.2461 14.1709 14.7451 15.3759 14.7451 16.6323V20.1986C14.7451 20.4926 14.6764 20.7826 14.5445 21.0456L13.4318 23.2646H25.5691L24.4565 21.0456C24.3242 20.7827 24.2552 20.4927 24.2549 20.1986V16.6323C24.2549 15.3759 23.7539 14.1709 22.8622 13.2825C21.9705 12.3941 20.7611 11.8949 19.5 11.8949Z" fill="#FF5987"/>
</svg>
