<svg width="36" height="38" viewBox="0 0 36 38" fill="none" xmlns="http://www.w3.org/2000/svg">
<path d="M0.5 18C0.5 8.33502 8.33502 0.5 18 0.5C27.665 0.5 35.5 8.33502 35.5 18V20C35.5 29.665 27.665 37.5 18 37.5C8.33502 37.5 0.5 29.665 0.5 20V18Z" stroke="#FF5987"/>
<path d="M21.8645 21.3208H21.0515L20.7633 21.0429C21.8068 19.8327 22.3803 18.2875 22.3791 16.6895C22.3791 15.3665 21.9867 14.0731 21.2517 12.973C20.5166 11.8729 19.4719 11.0155 18.2495 10.5092C17.0272 10.0029 15.6821 9.87042 14.3845 10.1285C13.0868 10.3867 11.8949 11.0238 10.9593 11.9593C10.0238 12.8949 9.38666 14.0868 9.12854 15.3845C8.87042 16.6821 9.0029 18.0272 9.50921 19.2495C10.0155 20.4719 10.8729 21.5166 11.973 22.2517C13.0731 22.9867 14.3665 23.3791 15.6895 23.3791C17.3465 23.3791 18.8696 22.7719 20.0429 21.7633L20.3208 22.0515V22.8645L25.4666 28L27 26.4666L21.8645 21.3208ZM15.6895 21.3208C13.1269 21.3208 11.0583 19.2521 11.0583 16.6895C11.0583 14.1269 13.1269 12.0583 15.6895 12.0583C18.2521 12.0583 20.3208 14.1269 20.3208 16.6895C20.3208 19.2521 18.2521 21.3208 15.6895 21.3208Z" fill="#FF5987"/>
</svg>
